<?xml version="1.0" encoding="utf-8"?>
<!-- Generator: Adobe Illustrator 25.0.0, SVG Export Plug-In . SVG Version: 6.00 Build 0)  -->
<svg version="1.1" id="Layer_1" xmlns="http://www.w3.org/2000/svg" xmlns:xlink="http://www.w3.org/1999/xlink" x="0px" y="0px"
	 viewBox="0 0 300 60" style="enable-background:new 0 0 300 60;" xml:space="preserve">
<style type="text/css">
	.st0{fill:#FFFFFF;}
</style>
<g>
	<g>
		<path class="st0" d="M166.5,12.1c1.5,1.8,2.3,4.3,2.2,6.7c0,0.5,0,0.8,0,1.2h-12.3c0.5,2,2.3,3.5,4.5,3.5c1.7,0,3.2-0.7,4.3-1.8
			l2.7,2.7c-0.8,1-2,1.7-3.2,2.2c-1.3,0.5-2.7,0.8-4.2,0.8c-1.7,0-3.3-0.3-4.8-1c-1.3-0.7-2.3-1.8-3.2-3c-0.8-1.3-1.2-3-1.2-4.5
			c0-1.7,0.3-3.2,1.2-4.7c0.7-1.3,1.8-2.3,3.2-3c1.3-1,2.8-1.3,4.5-1.3C162.5,9.6,164.8,10.4,166.5,12.1z M164,17.1
			c0-1-0.3-2-1.2-2.7c-0.7-0.7-1.7-1-2.7-1c-1,0-2,0.3-2.7,1s-1.2,1.7-1.3,2.7H164z"/>
	</g>
	<g>
		<polygon class="st0" points="169,9.9 174.5,9.9 177.7,15.1 181,9.9 186.5,9.9 181,18.3 186.8,27.1 181.2,27.1 177.7,21.4 
			174,27.1 168.5,27.1 174.5,18.3 		"/>
	</g>
	<g>
		<path class="st0" d="M199.8,26.1c-0.7,0.3-1.3,0.7-2.2,0.8c-0.8,0.2-1.5,0.3-2.3,0.3c-1.5,0-2.8-0.5-3.8-1.3c-1-1-1.7-2.5-1.5-3.8
			v-8h-2.3v-3.3h2.3V5.9h4.8v4.7h4.7v3.3h-4.7v7.2c0,1.3,0.5,2,1.5,2c0.8,0,1.7-0.2,2.3-0.7L199.8,26.1z"/>
	</g>
	<g>
		<path class="st0" d="M216.2,12.1c1.5,1.8,2.3,4.3,2.2,6.7c0,0.5,0,0.8,0,1.2H206c0.2,1,0.8,1.8,1.7,2.5c0.8,0.7,1.8,1,2.8,0.8
			c1.7,0,3.2-0.7,4.3-1.8l2.5,2.7c-0.8,1-2,1.7-3.2,2.2c-1.3,0.5-2.7,0.8-4.2,0.8c-1.7,0-3.3-0.3-4.8-1c-1.3-0.7-2.3-1.8-3.2-3
			c-0.8-1.3-1.2-3-1.2-4.5c0-1.7,0.3-3.2,1.2-4.7c0.7-1.3,1.8-2.3,3.2-3c1.5-0.8,3.2-1.2,4.7-1.2C212.3,9.6,214.5,10.4,216.2,12.1z
			 M213.7,17.1c0-1-0.3-2-1.2-2.7c-0.7-0.7-1.7-1-2.7-1c-1,0-2,0.3-2.7,1s-1.2,1.7-1.3,2.7H213.7z"/>
	</g>
	<g>
		<path class="st0" d="M236.8,11.6c1.2,1.3,1.8,3,1.7,4.8v10.8h-4.8v-9.5c0-1-0.3-1.8-0.8-2.5c-0.7-0.7-1.5-1-2.5-1
			c-1.2,0-2.2,0.5-2.8,1.3c-0.7,0.8-1,2-1,3.2v8.5h-5V9.9h5v3c1.2-2.2,3.5-3.3,6-3.2C234,9.6,235.7,10.3,236.8,11.6z"/>
	</g>
	<g>
		<path class="st0" d="M259.5,3.4v23.7h-4.8v-2.5c-0.5,0.8-1.3,1.5-2.3,2c-1,0.5-2,0.7-3,0.7c-1.5,0-3-0.3-4.3-1
			c-1.2-0.7-2.2-1.8-2.8-3c-0.7-1.5-1-3-1-4.7c0-1.5,0.3-3.2,1-4.5c0.7-1.3,1.7-2.3,2.8-3c1.3-0.8,2.7-1.2,4.2-1.2
			c2.2-0.2,4.3,1,5.5,2.7V3.4H259.5z M253.5,21.9c0.8-1,1.2-2.2,1.2-3.5s-0.3-2.5-1.2-3.5c-1.7-1.7-4.3-1.8-6-0.2l-0.2,0.2
			c-0.8,1-1.3,2.2-1.2,3.5c0,1.3,0.3,2.5,1.2,3.5C248.8,23.8,251.5,23.8,253.5,21.9C253.3,22.1,253.3,22.1,253.5,21.9z"/>
	</g>
	<g>
		<path class="st0" d="M277.8,12.1c1.5,1.8,2.3,4.3,2.2,6.7c0,0.5,0,0.8,0,1.2h-12.3c0.2,1,0.8,1.8,1.7,2.5s1.8,1,2.8,0.8
			c0.8,0,1.7-0.2,2.3-0.5c0.8-0.3,1.5-0.8,2-1.3l2.7,2.7c-0.8,1-2,1.7-3.2,2.2c-1.3,0.5-2.7,0.8-4.2,0.8c-1.7,0-3.3-0.3-4.8-1
			c-1.3-0.7-2.3-1.8-3.2-3c-0.8-1.3-1.2-3-1.2-4.5c0-1.7,0.3-3.2,1.2-4.7c0.7-1.3,1.8-2.3,3.2-3c1.3-0.8,3-1.2,4.7-1.2
			C274,9.6,276.2,10.4,277.8,12.1z M275.3,17.1c0-1-0.3-2-1.2-2.7c-0.7-0.7-1.7-1-2.7-1c-1,0-2,0.3-2.7,1c-0.7,0.7-1.2,1.7-1.3,2.7
			H275.3z"/>
	</g>
	<g>
		<path class="st0" d="M300,3.4v23.7h-4.8v-2.5c-0.5,0.8-1.3,1.5-2.3,2c-1,0.5-2,0.7-3.2,0.7c-1.5,0-3-0.3-4.2-1
			c-1.2-0.7-2.2-1.8-2.8-3c-0.7-1.5-1-3-1-4.7c0-1.5,0.3-3.2,1-4.5c0.7-1.3,1.7-2.3,2.8-3c1.3-0.7,2.7-1.2,4.2-1.2
			c2.2-0.2,4.2,0.8,5.5,2.7V3.4H300z M294,21.9c0.8-1,1.2-2.2,1.2-3.5s-0.3-2.5-1.2-3.5c-1.7-1.7-4.3-1.8-6-0.2l-0.2,0.2
			c-0.8,1-1.3,2.2-1.2,3.5c0,1.3,0.3,2.5,1.2,3.5c1.7,1.7,4.3,1.8,6,0.2C293.8,22.1,293.8,22.1,294,21.9L294,21.9z"/>
	</g>
	<g>
		<path class="st0" d="M160.2,37.6c-1.2,0-2.2,0.3-3.2,0.8s-1.7,1.3-2.2,2.3c-0.5,1-0.8,2.2-0.8,3.3s0.3,2.3,0.8,3.3
			c0.5,1,1.3,1.8,2.2,2.3c1,0.5,2.2,0.8,3.2,0.8c1,0,2-0.2,3-0.5c0.8-0.3,1.7-1,2.3-1.7l1.2,1.3c-0.8,0.8-1.7,1.7-2.8,2
			c-1.2,0.5-2.5,0.8-3.8,0.7c-1.5,0-3-0.3-4.3-1c-1.2-0.7-2.3-1.7-3-3c-1.5-2.7-1.5-6,0-8.7c0.7-1.3,1.7-2.3,3-3
			c1.3-0.7,2.8-1,4.3-1c1.2,0,2.5,0.2,3.5,0.7c1,0.3,2,1,2.8,1.8l-1.2,1.5C163.8,38.2,162,37.6,160.2,37.6z"/>
	</g>
	<g>
		<path class="st0" d="M181.3,52.4v-2.7c-0.7,1-1.5,1.7-2.7,2.2c-1.2,0.5-2.3,0.7-3.7,0.7c-1,0-2-0.2-3-0.7c-0.8-0.3-1.5-1-2-1.8
			c-0.5-0.8-0.7-1.7-0.7-2.7c0-1.3,0.5-2.7,1.7-3.3c1.3-0.8,3-1.3,4.7-1.2h5.7v-1.3c0-1.2-0.3-2.3-1.2-3c-1-0.8-2.2-1.2-3.5-1
			c-2,0-3.8,0.8-5.3,2l-0.8-1.5c1-0.7,2-1.3,3.2-1.7c1.2-0.3,2.3-0.5,3.5-0.5c1.7-0.2,3.3,0.5,4.7,1.5c1.2,1.2,1.8,2.7,1.7,4.2v11
			h-2.2V52.4z M179.2,49.8c1-0.7,1.8-1.7,2.2-3v-2.3H176c-1.2,0-2.3,0.2-3.3,0.7c-0.8,0.5-1.2,1.3-1.2,2.2c0,1,0.3,1.8,1.2,2.3
			c0.8,0.7,1.8,1,3,0.8C176.8,50.8,178.2,50.4,179.2,49.8z"/>
	</g>
	<g>
		<path class="st0" d="M215.5,37.4c1.2,1.3,1.8,3,1.7,4.8v10.2H215v-9.8c0.2-1.3-0.3-2.7-1.3-3.7c-1-0.8-2.2-1.3-3.5-1.3
			c-1.7,0-3.2,0.7-4.2,1.8c-1,1.3-1.7,3-1.5,4.7v8.2h-2.2v-9.7c0-1.3-0.3-2.7-1.3-3.7c-1-0.8-2.2-1.3-3.5-1.3
			c-1.7,0-3.2,0.7-4.2,1.8c-1,1.3-1.7,3-1.5,4.7v8.2h-2.2V35.6h2.2v4.2c0.5-1.2,1.3-2.3,2.5-3c1.2-0.7,2.7-1,4-1
			c1.5,0,2.8,0.3,4,1.2c1,0.8,1.8,2,2,3.3c0.3-1.3,1.3-2.5,2.5-3.3c1.3-0.8,2.7-1.2,4.2-1.2C212.7,35.6,214.3,36.2,215.5,37.4z"/>
	</g>
	<g>
		<path class="st0" d="M236.5,36.8c1.2,0.7,2.2,1.7,2.8,3s1,2.8,1,4.3c0,1.5-0.3,3-1,4.3c-0.7,1.2-1.7,2.3-2.8,3
			c-1.3,0.7-2.7,1-4.2,1c-1.3,0-2.8-0.3-4-1c-1.2-0.7-2-1.7-2.7-2.8v10h-2.2V35.8h2.2v3.8c0.5-1.2,1.5-2.2,2.7-2.8
			c1.2-0.7,2.7-1,4-1C233.8,35.8,235.2,36.1,236.5,36.8z M235.2,49.9c1-0.5,1.7-1.3,2.2-2.3c1-2.2,1-4.7,0-6.8
			c-0.5-1-1.3-1.8-2.2-2.3c-2-1.2-4.5-1.2-6.5,0c-1,0.5-1.7,1.3-2.2,2.3s-0.8,2.2-0.8,3.3s0.3,2.3,0.8,3.3s1.3,1.8,2.2,2.3
			C230.7,50.9,233.2,50.9,235.2,49.9L235.2,49.9z"/>
	</g>
	<g>
		<path class="st0" d="M259.7,35.8v16.7h-2.2v-4c-0.5,1.2-1.3,2.3-2.5,3c-1.2,0.7-2.5,1-4,1c-1.7,0.2-3.3-0.5-4.7-1.7
			c-1.2-1.3-1.8-3-1.7-4.8V35.8h2.2v9.8c0,1.3,0.3,2.7,1.3,3.7c1,0.8,2.2,1.3,3.5,1.3c1.7,0,3.2-0.7,4.2-1.8c1-1.3,1.7-3,1.5-4.7
			v-8.2L259.7,35.8z"/>
	</g>
	<g>
		<path class="st0" d="M272.8,37.8c-0.8-0.2-1.5-0.3-2.3-0.3c-0.8,0-1.8,0.2-2.5,0.7c-0.7,0.3-1,1.2-1,1.8c0,0.5,0.2,1,0.5,1.3
			c0.3,0.3,0.8,0.7,1.3,0.8c0.7,0.3,1.5,0.5,2.2,0.8c1,0.3,1.8,0.7,2.8,1c0.7,0.3,1.3,0.8,1.8,1.5c0.5,0.7,0.8,1.7,0.8,2.5
			c0,1.3-0.5,2.7-1.7,3.5c-1.3,0.8-2.8,1.3-4.3,1.2c-1.2,0-2.3-0.2-3.5-0.7c-1-0.3-2-1-2.8-1.7l0.8-1.5c0.8,0.7,1.7,1.2,2.5,1.5
			c1,0.3,2,0.5,3,0.5s2-0.2,2.8-0.7c0.7-0.5,1.2-1.2,1-2c0-0.5-0.2-1.2-0.5-1.5c-0.3-0.3-0.8-0.7-1.3-1c-0.5-0.2-1.3-0.5-2.2-0.8
			c-1-0.3-1.8-0.7-2.7-1c-0.7-0.3-1.3-0.8-1.8-1.3c-0.5-0.7-0.8-1.5-0.7-2.3c0-1.3,0.5-2.5,1.7-3.3c1.2-0.8,2.7-1.2,4.2-1.2
			c1,0,1.8,0.2,2.8,0.3c0.8,0.2,1.7,0.5,2.3,1l-0.8,1.7C274.2,38.2,273.5,37.9,272.8,37.8z"/>
	</g>
	<g>
		<polygon class="st0" points="98.2,26.1 106.3,34.2 109.7,30.4 98.2,17.4 		"/>
	</g>
	<g>
		<path class="st0" d="M143,18.6l-6,6v-8.8L122.7,1.4h-15v3.7l-9.3,4.8v4.8c2.8,0,7.5,0.2,7.5,0.2l13.7,15.5l0,0l-9.7,11l2,11
			c0,0,25-0.3,25.3-0.2l7.3-32.2L143,18.6z M135.8,30.4L135.8,30.4l-13.7,15.5c0,0-9.8,0.2-9.8,0L126,30.4l-13.7-15.5
			c0-0.2,9.8,0,9.8,0L135.8,30.4z"/>
	</g>
	<g>
		<path class="st0" d="M31.3,6.1v32.7c0,6.8-3.8,14.2-15.7,14.2C5.2,52.9,0,47.4,0,38.8V6.1h9.7v32c0,5.7,2.3,7.8,6,7.8
			c4.2,0,6.2-2.8,6.2-7.8v-32H31.3z"/>
	</g>
	<g>
		<polygon class="st0" points="35.5,6.1 45.3,6.1 51.3,38.4 51.3,38.4 58.7,6.3 70,6.3 76.8,38.4 77,38.4 82.7,6.3 92.2,6.3 
			82,52.2 71.3,52.2 64.2,18.6 64,18.6 56.2,52.2 45.7,52.2 		"/>
	</g>
</g>
</svg>
